<svg xmlns="http://www.w3.org/2000/svg" viewBox="0 0 192 192" width="192" height="192">
  <defs>
    <linearGradient id="bg" x1="0%" y1="0%" x2="100%" y2="100%">
      <stop offset="0%" style="stop-color:#e82127"/>
      <stop offset="100%" style="stop-color:#c41e22"/>
    </linearGradient>
  </defs>
  <rect width="192" height="192" rx="24" fill="url(#bg)"/>
  <g transform="translate(96, 96)">
    <!-- Bell icon -->
    <path d="M-40,-20 L-40,15 A45,45 0 0,0 40,15 L40,-20 A50,50 0 0,0 -40,-20 Z" fill="white" opacity="0.95"/>
    <circle cx="0" cy="50" r="15" fill="white" opacity="0.95"/>
    <rect x="-8" y="-55" width="16" height="20" rx="8" fill="white" opacity="0.95"/>
    <!-- Sound waves -->
    <path d="M50,0 Q65,-15 50,-30" stroke="white" stroke-width="4" fill="none" opacity="0.7"/>
    <path d="M55,0 Q75,-20 55,-40" stroke="white" stroke-width="4" fill="none" opacity="0.5"/>
    <path d="M-50,0 Q-65,-15 -50,-30" stroke="white" stroke-width="4" fill="none" opacity="0.7"/>
    <path d="M-55,0 Q-75,-20 -55,-40" stroke="white" stroke-width="4" fill="none" opacity="0.5"/>
  </g>
</svg>
